# This file uses centimeters as units for non-parametric coordinates.

mtllib AntHoleEntrance.mtl
g default
v 130.545700 -23.735584 -7.390457
v 130.545700 -10.484279 0.000000
v 130.545700 -10.484279 -10.451685
v 130.545700 -23.735584 0.000000
v 130.545700 -3.093827 -7.390457
v 130.545700 -23.735584 7.390457
v 130.545700 -0.032597 0.000000
v 130.545700 -10.484279 10.451685
v 130.545700 -3.093827 7.390458
v 118.400337 0.000000 -10.451685
v 107.948654 -0.000000 -7.390457
v 107.948654 -0.000000 0.000000
v 125.790794 0.000000 -7.390457
v 107.948654 -0.000000 7.390457
v 128.852020 0.000000 0.000000
v 118.400337 0.000000 10.451685
v 125.790794 0.000000 7.390458
v 106.810120 0.000000 11.867791
v 130.545700 0.000000 11.867791
v 106.810120 0.000000 -11.867791
v 130.545700 0.000000 -11.867791
v 130.545700 0.000000 0.000000
v 106.810120 0.000000 0.000000
vt 0.200514 0.470342
vt 0.345138 0.729658
vt 0.140608 0.729658
vt 0.345138 0.470342
vt 0.200514 0.874282
vt 0.489763 0.470342
vt 0.345138 0.934188
vt 0.549669 0.729658
vt 0.489763 0.874282
vt 0.101329 0.614966
vt 0.041424 0.470342
vt 0.134473 0.470342
vt 0.134473 0.614966
vt 0.041424 0.759591
vt 0.134473 0.759591
vt 0.450446 0.001866
vt 0.914930 0.001866
vt 0.677256 0.029578
vt 0.821881 0.089483
vt 0.472726 0.089483
vt 0.914930 0.234108
vt 0.881786 0.234108
vt 0.472726 0.234108
vt 0.450446 0.234108
vt 0.914930 0.466350
vt 0.821881 0.378733
vt 0.914930 0.089483
vt 0.914930 0.234108
vt 0.472726 0.378733
vt 0.450446 0.466350
vt 0.677256 0.438638
vt 0.914930 0.378733
vt 0.206522 0.466350
vt 0.001992 0.466350
vt 0.444196 0.001866
vt 0.444196 0.261182
vt 0.351147 0.466350
vt 0.444196 0.405807
vt 0.555804 0.470341
vt 0.760334 0.470341
vt 0.998008 0.675509
vt 0.998008 0.934826
vt 0.904959 0.470341
vt 0.998008 0.530885
vn -1.000000 -0.000000 0.000000
vn -1.000000 -0.000000 0.000000
vn -1.000000 -0.000000 0.000000
vn -1.000000 0.000000 0.000000
vn -1.000000 0.000001 0.000000
vn -1.000000 -0.000000 0.000000
vn -1.000000 0.000000 0.000000
vn -1.000000 -0.000000 0.000000
vn -1.000000 0.000001 0.000000
vn 0.240589 0.244263 0.939389
vn 0.240589 0.244263 0.939389
vn 0.240589 0.244263 0.939389
vn 0.240589 0.244263 0.939389
vn 0.724264 0.689523 0.000000
vn 0.724264 0.689523 0.000000
vn 0.724264 0.689523 0.000000
vn 0.724264 0.689523 0.000000
vn -0.317967 -0.395764 0.861549
vn -0.317967 -0.395764 0.861549
vn -0.317967 -0.395764 0.861549
vn -0.317967 -0.395764 0.861549
vn 0.724264 0.689523 0.000000
vn 0.724264 0.689523 0.000000
vn 0.724264 0.689523 0.000000
vn 0.724264 0.689523 0.000000
vn -0.420455 -0.867234 0.266689
vn -0.420455 -0.867234 0.266689
vn -0.420455 -0.867234 0.266689
vn -0.420455 -0.867234 0.266689
vn 0.240589 0.244263 -0.939389
vn 0.240589 0.244263 -0.939389
vn 0.240589 0.244263 -0.939389
vn 0.240589 0.244263 -0.939389
vn -0.420455 -0.867234 -0.266689
vn -0.420455 -0.867234 -0.266689
vn -0.420455 -0.867234 -0.266689
vn -0.420455 -0.867234 -0.266689
vn -0.317967 -0.395764 -0.861550
vn -0.317967 -0.395764 -0.861549
vn -0.317967 -0.395764 -0.861549
vn -0.317967 -0.395764 -0.861550
vn 0.000000 1.000000 -0.000000
vn 0.000000 1.000000 0.000000
vn -0.000000 1.000000 -0.000000
vn -0.000000 1.000000 0.000000
vn 0.000000 1.000000 0.000000
vn 0.000000 1.000000 0.000000
vn 0.000000 1.000000 -0.000000
vn 0.000000 1.000000 0.000000
vn 0.000000 1.000000 0.000000
vn 0.000000 1.000000 0.000000
vn 0.000000 1.000000 0.000000
vn 0.000000 1.000000 0.000000
vn 0.000000 1.000000 0.000000
vn 0.000000 1.000000 0.000000
s 1
g pPlane10
usemtl initialShadingGroup
f 1/1/1 2/2/2 3/3/3
f 4/4/4 2/2/2 1/1/1
f 3/3/3 2/2/2 5/5/5
f 6/6/6 2/2/2 4/4/4
f 5/5/5 2/2/2 7/7/7
f 8/8/8 2/2/2 6/6/6
f 7/7/7 2/2/2 9/9/9
f 9/9/9 2/2/2 8/8/8
s off
f 10/33/10 11/34/11 1/35/12 3/36/13
f 11/29/14 12/23/15 4/28/16 1/32/17
f 13/37/18 10/33/19 3/36/20 5/38/21
f 12/23/22 14/20/23 6/27/24 4/28/25
f 15/10/26 13/11/27 5/12/28 7/13/29
f 14/39/30 16/40/31 8/41/32 6/42/33
f 17/14/34 15/10/35 7/13/36 9/15/37
f 16/40/38 17/43/39 9/44/40 8/41/41
s 2
usemtl lambert4SG
f 18/16/42 19/17/43 16/18/44
f 10/31/45 21/25/46 20/30/47
f 18/16/42 16/18/44 14/20/48
f 13/26/49 21/25/46 10/31/45
f 19/17/43 22/21/50 15/22/51 17/19/52
f 23/24/53 12/23/54 11/29/55 20/30/47
f 20/30/47 11/29/55 10/31/45
f 15/22/51 22/21/50 21/25/46 13/26/49
f 19/17/43 17/19/52 16/18/44
f 18/16/42 14/20/48 12/23/54 23/24/53
