# This file uses centimeters as units for non-parametric coordinates.

mtllib FizzyCan.mtl
g default
v 10.451616 0.080051 -6.034244
v 6.034244 0.080051 -10.451616
v 0.000000 0.080051 -12.068487
v -6.034244 0.080051 -10.451616
v -10.451616 0.080051 -6.034244
v -12.068487 0.080051 0.000000
v -10.451616 0.080051 6.034244
v -6.034244 0.080051 10.451616
v 0.000000 0.080051 12.068487
v 6.034244 0.080051 10.451616
v 10.451616 0.080051 6.034244
v 12.068487 0.080051 0.000000
v 10.451616 45.527973 -6.034244
v 6.034244 45.527973 -10.451616
v 0.000000 45.527973 -12.068487
v -6.034244 45.527973 -10.451616
v -10.451616 45.527973 -6.034244
v -12.068487 45.527973 0.000000
v -10.451616 45.527973 6.034244
v -6.034244 45.527973 10.451616
v 0.000000 45.527973 12.068487
v 6.034244 45.527973 10.451616
v 10.451616 45.527973 6.034244
v 12.068487 45.527973 0.000000
v 0.000000 0.080051 0.000000
v 0.000000 47.009518 0.000000
v -9.337079 47.009518 -5.390760
v -10.781521 47.009518 0.000000
v -9.337079 47.009518 5.390760
v -5.390760 47.009518 9.337079
v 0.000000 47.009518 10.781521
v 5.390760 47.009518 9.337079
v 9.337079 47.009518 5.390760
v 10.781521 47.009518 0.000000
v 9.337079 47.009518 -5.390760
v 5.390760 47.009518 -9.337079
v 0.000000 47.009518 -10.781521
v -5.390760 47.009518 -9.337079
v 9.518807 47.009518 -5.495682
v 5.495682 47.009518 -9.518807
v 0.000000 47.009518 -10.991364
v -5.495682 47.009518 -9.518807
v -9.518807 47.009518 -5.495682
v -10.991364 47.009518 0.000000
v -9.518807 47.009518 5.495682
v -5.495682 47.009518 9.518807
v 0.000000 47.009518 10.991364
v 5.495682 47.009518 9.518807
v 9.518807 47.009518 5.495682
v 10.991364 47.009518 0.000000
v -9.518807 47.436264 -5.495684
v -10.991364 47.436264 -0.000001
v -10.781521 47.436264 -0.000001
v -9.337079 47.436264 -5.390763
v -9.518807 47.436264 5.495684
v -9.337079 47.436264 5.390763
v -5.495682 47.436264 9.518808
v -5.390760 47.436264 9.337080
v 0.000000 47.436264 10.991359
v 0.000000 47.436264 10.781517
v 5.495682 47.436264 9.518806
v 5.390760 47.436264 9.337078
v 9.518807 47.436264 5.495684
v 9.337079 47.436264 5.390763
v 10.991364 47.436264 0.000001
v 10.781521 47.436264 0.000001
v 9.518807 47.436264 -5.495684
v 9.337079 47.436264 -5.390763
v 5.495682 47.436264 -9.518808
v 5.390760 47.436264 -9.337080
v -0.000000 47.436264 -10.991359
v -0.000000 47.436264 -10.781517
v -5.495682 47.436264 -9.518806
v -5.390760 47.436264 -9.337078
v -4.668540 47.009518 -2.695380
v -4.668540 47.009518 2.695380
v -7.470953 47.009518 -2.659957
v -10.379136 47.009518 0.000000
v -7.470953 47.009518 2.659957
v -1.937804 47.009518 0.000000
v -9.922304 47.009518 -1.532785
v -9.922304 47.009518 1.532785
v -2.967786 47.009518 -1.329978
v -2.334270 47.009518 -1.347690
v -2.695380 47.009518 -4.668540
v -2.967786 47.009518 1.329978
v -2.334270 47.009518 1.347690
v -2.695380 47.009518 4.668540
v -1.937804 46.809933 0.000000
v -2.967786 46.809933 -1.329978
v -7.470953 46.809933 -2.659957
v -7.380811 46.809933 0.000000
v -7.470953 46.809933 2.659957
v -2.967786 46.809933 1.329978
v -9.922304 46.809933 -1.532785
v -10.379136 46.809933 0.000000
v -9.922304 46.809933 1.532785
vt 0.298380 0.001835
vt 0.367535 0.001835
vt 0.367535 0.555515
vt 0.298380 0.555515
vt 0.436690 0.001835
vt 0.436690 0.555515
vt 0.367535 0.573564
vt 0.304552 0.573564
vt 0.247755 0.001835
vt 0.247755 0.555515
vt 0.487315 0.001835
vt 0.487315 0.555515
vt 0.430518 0.573564
vt 0.367535 0.578763
vt 0.304552 0.578763
vt 0.430518 0.578763
vt 0.258445 0.573564
vt 0.258445 0.578763
vt 0.476625 0.573564
vt 0.476625 0.578763
vt 0.052617 0.001835
vt 0.121772 0.001835
vt 0.121772 0.555515
vt 0.052617 0.555515
vt 0.190927 0.001835
vt 0.190927 0.555515
vt 0.121772 0.573564
vt 0.058789 0.573564
vt 0.001992 0.001835
vt 0.001992 0.555515
vt 0.241552 0.001835
vt 0.241552 0.555515
vt 0.184754 0.573564
vt 0.121772 0.578763
vt 0.058789 0.578763
vt 0.184754 0.578763
vt 0.012682 0.573564
vt 0.012682 0.578763
vt 0.230862 0.573564
vt 0.230862 0.578763
vt 0.044212 0.689762
vt 0.044212 0.627981
vt 0.049412 0.627981
vt 0.049412 0.689762
vt 0.044212 0.582754
vt 0.049412 0.582755
vt 0.044212 0.751542
vt 0.049412 0.751542
vt 0.044212 0.796769
vt 0.049412 0.796769
vt 0.032878 0.689761
vt 0.032878 0.627981
vt 0.038077 0.627981
vt 0.038077 0.689761
vt 0.032878 0.582754
vt 0.038077 0.582754
vt 0.032878 0.751542
vt 0.038077 0.751542
vt 0.032878 0.796768
vt 0.038077 0.796768
vt 0.115709 0.823708
vt 0.115709 0.841275
vt 0.113277 0.841275
vt 0.113277 0.823708
vt 0.115709 0.858841
vt 0.113277 0.858841
vt 0.929602 0.578036
vt 0.979679 0.628661
vt 0.861197 0.697816
vt 0.998008 0.697816
vt 0.861197 0.559506
vt 0.979679 0.766971
vt 0.792791 0.578036
vt 0.929602 0.817597
vt 0.742715 0.628661
vt 0.861197 0.836127
vt 0.724386 0.697816
vt 0.792791 0.817597
vt 0.742715 0.766971
vt 0.446540 0.768096
vt 0.401804 0.813323
vt 0.340693 0.706316
vt 0.340693 0.829877
vt 0.462915 0.706316
vt 0.310138 0.759820
vt 0.446540 0.644536
vt 0.279583 0.813323
vt 0.314231 0.721761
vt 0.401804 0.599308
vt 0.287770 0.737206
vt 0.307050 0.721558
vt 0.318726 0.706316
vt 0.340693 0.582755
vt 0.234846 0.768096
vt 0.256001 0.736800
vt 0.307050 0.691074
vt 0.314231 0.690871
vt 0.310138 0.652812
vt 0.228212 0.723882
vt 0.256001 0.675832
vt 0.287770 0.675426
vt 0.279583 0.599308
vt 0.218472 0.706316
vt 0.223033 0.706316
vt 0.228212 0.688749
vt 0.234846 0.644536
vt 0.056059 0.823709
vt 0.071301 0.835385
vt 0.086543 0.886434
vt 0.056059 0.885412
vt 0.073625 0.914223
vt 0.056059 0.919402
vt 0.025574 0.886434
vt 0.040816 0.835385
vt 0.038492 0.914223
vt 0.485743 0.771703
vt 0.469050 0.708721
vt 0.471429 0.708721
vt 0.487803 0.770501
vt 0.485743 0.645738
vt 0.487803 0.646940
vt 0.531350 0.817811
vt 0.532540 0.815727
vt 0.531350 0.599631
vt 0.532540 0.601713
vt 0.593650 0.834687
vt 0.593650 0.832282
vt 0.593650 0.582755
vt 0.593650 0.585159
vt 0.655950 0.817811
vt 0.654761 0.815728
vt 0.655950 0.599631
vt 0.654761 0.601714
vt 0.701558 0.771703
vt 0.699497 0.770501
vt 0.701558 0.645738
vt 0.699497 0.646940
vt 0.718251 0.708721
vt 0.715872 0.708721
vt 0.143181 0.582754
vt 0.193806 0.632831
vt 0.183116 0.638936
vt 0.137009 0.593329
vt 0.212336 0.701236
vt 0.199993 0.701236
vt 0.193806 0.769641
vt 0.183116 0.763536
vt 0.143181 0.819718
vt 0.137009 0.809143
vt 0.124702 0.819717
vt 0.074077 0.769640
vt 0.084767 0.763535
vt 0.130874 0.809142
vt 0.055547 0.701235
vt 0.067890 0.701235
vt 0.074077 0.632830
vt 0.084767 0.638935
vt 0.124702 0.582754
vt 0.130874 0.593327
vt 0.632083 0.555515
vt 0.563677 0.555515
vt 0.563677 0.001835
vt 0.632083 0.001835
vt 0.495272 0.555515
vt 0.495272 0.001835
vt 0.639494 0.001835
vt 0.707900 0.001835
vt 0.707900 0.555515
vt 0.639494 0.555515
vt 0.776305 0.001835
vt 0.776305 0.555515
vt 0.021544 0.707355
vt 0.021544 0.645054
vt 0.026742 0.645054
vt 0.026742 0.707355
vt 0.021544 0.582754
vt 0.026742 0.582754
vt 0.007191 0.772456
vt 0.007191 0.833566
vt 0.001992 0.833566
vt 0.001992 0.772456
vt 0.007191 0.711346
vt 0.001992 0.711346
vt 0.015408 0.582754
vt 0.015408 0.645054
vt 0.010210 0.645054
vt 0.010210 0.582754
vt 0.015408 0.707354
vt 0.010210 0.707354
vt 0.013881 0.772457
vt 0.013881 0.711346
vt 0.019080 0.711346
vt 0.019080 0.772457
vt 0.013881 0.833568
vt 0.019080 0.833568
vt 0.096219 0.835384
vt 0.096219 0.886433
vt 0.093788 0.886433
vt 0.093788 0.835384
vt 0.096219 0.914222
vt 0.093788 0.914222
vt 0.096219 0.823708
vt 0.093788 0.823708
vt 0.103532 0.886433
vt 0.103532 0.835384
vt 0.105964 0.835384
vt 0.105964 0.886433
vt 0.103532 0.823708
vt 0.105964 0.823708
vt 0.103532 0.914222
vt 0.105964 0.914222
vn 0.860773 -0.109973 -0.496967
vn 0.496967 -0.109973 -0.860773
vn 0.499901 0.019877 -0.865854
vn 0.865854 0.019877 -0.499901
vn 0.000000 -0.109973 -0.993935
vn 0.000000 0.019877 -0.999802
vn -0.496967 -0.109973 -0.860773
vn -0.499901 0.019877 -0.865854
vn -0.860773 -0.109973 -0.496967
vn -0.865854 0.019877 -0.499901
vn -0.993935 -0.109973 0.000000
vn -0.999802 0.019877 -0.000000
vn -0.860773 -0.109973 0.496967
vn -0.865854 0.019877 0.499901
vn -0.496967 -0.109973 0.860773
vn -0.499901 0.019877 0.865854
vn 0.000000 -0.109973 0.993935
vn -0.000000 0.019877 0.999802
vn 0.496967 -0.109973 0.860773
vn 0.499901 0.019877 0.865854
vn 0.860773 -0.109973 0.496967
vn 0.865854 0.019877 0.499901
vn 0.993935 -0.109973 0.000000
vn 0.999802 0.019877 0.000000
vn 0.000000 -1.000000 0.000000
vn -0.081900 0.995518 0.047284
vn -0.047285 0.995518 0.081899
vn 0.000000 1.000000 -0.000000
vn 0.000000 0.992074 0.125655
vn 0.097037 0.980987 0.168073
vn 0.000000 1.000000 0.000001
vn 0.208877 0.970478 0.120595
vn 0.000000 1.000000 0.000001
vn 0.000000 1.000000 0.000000
vn 0.000000 1.000000 -0.000002
vn 0.000000 1.000000 -0.000001
vn 0.000000 1.000000 0.000000
vn 0.000000 1.000000 0.000001
vn 0.000000 1.000000 0.000002
vn 0.000000 1.000000 0.000000
vn 0.000000 1.000000 0.000000
vn -0.000000 0.992074 -0.125655
vn -0.047285 0.995518 -0.081899
vn -0.081900 0.995518 -0.047285
vn -0.094569 0.995518 0.000000
vn -0.802453 0.376066 -0.463297
vn -0.926592 0.376067 0.000000
vn 0.865307 0.501243 0.000001
vn 0.749377 0.501243 0.432653
vn -0.802452 0.376066 0.463297
vn 0.749378 0.501244 -0.432652
vn -0.463295 0.376067 0.802453
vn 0.432654 0.501242 -0.749378
vn 0.000000 0.376071 0.926591
vn -0.000000 0.501235 -0.865311
vn 0.463295 0.376069 0.802452
vn -0.432654 0.501239 -0.749379
vn 0.802453 0.376066 0.463297
vn -0.749377 0.501243 -0.432653
vn 0.926592 0.376067 -0.000000
vn -0.865307 0.501243 -0.000001
vn 0.802452 0.376066 -0.463297
vn -0.749378 0.501244 0.432652
vn 0.463295 0.376067 -0.802453
vn -0.432654 0.501242 0.749378
vn -0.000000 0.376071 -0.926591
vn 0.000000 0.501235 0.865311
vn -0.463295 0.376069 -0.802452
vn 0.432654 0.501239 0.749379
vn 0.432233 0.502691 -0.748650
vn 0.748650 0.502691 -0.432232
vn 0.000000 0.502692 -0.864466
vn -0.432232 0.502691 -0.748650
vn -0.748650 0.502691 -0.432233
vn -0.864466 0.502691 0.000000
vn -0.748650 0.502691 0.432232
vn -0.432233 0.502691 0.748650
vn -0.000000 0.502692 0.864466
vn 0.432232 0.502691 0.748650
vn 0.748650 0.502691 0.432233
vn 0.864466 0.502691 -0.000000
vn 0.876354 0.481667 -0.000000
vn 0.208877 0.970478 -0.120594
vn 0.097037 0.980987 -0.168072
vn 0.000000 1.000000 0.000000
vn 0.000000 1.000000 0.000000
vn 0.000000 1.000000 0.000000
vn 0.000000 1.000000 0.000000
vn 0.000000 1.000000 0.000001
vn 0.000000 1.000000 0.000000
vn 0.000000 1.000000 0.000000
vn 0.000000 1.000000 0.000000
vn 0.000000 1.000000 0.000000
vn 0.000000 1.000000 0.000000
vn 0.000000 1.000000 0.000000
vn 0.000000 1.000000 0.000000
vn 0.000000 1.000000 0.000000
vn -0.790629 -0.000000 0.612295
vn -0.790629 -0.000000 0.612295
vn -0.790629 -0.000000 0.612295
vn -0.790629 -0.000000 0.612295
vn -0.283250 0.000000 0.959046
vn -0.283250 0.000000 0.959046
vn -0.283250 0.000000 0.959046
vn -0.283250 0.000000 0.959046
vn -0.283250 0.000000 -0.959046
vn -0.283250 0.000000 -0.959046
vn -0.283250 0.000000 -0.959046
vn -0.283250 0.000000 -0.959046
vn -0.790629 0.000000 -0.612295
vn -0.790629 0.000000 -0.612295
vn -0.790629 0.000000 -0.612295
vn -0.790629 0.000000 -0.612295
vn 0.417765 0.000000 0.908555
vn 0.417765 0.000000 0.908555
vn 0.417765 0.000000 0.908555
vn 0.417765 0.000000 0.908555
vn 0.958341 0.000000 0.285625
vn 0.958341 0.000000 0.285625
vn 0.958341 0.000000 0.285625
vn 0.958341 0.000000 0.285625
vn 0.958341 -0.000001 -0.285625
vn 0.958341 -0.000001 -0.285625
vn 0.958341 -0.000001 -0.285625
vn 0.958341 -0.000001 -0.285625
vn 0.417765 0.000000 -0.908555
vn 0.417765 0.000000 -0.908555
vn 0.417765 0.000000 -0.908555
vn 0.417765 0.000000 -0.908555
s 1
g pCylinder6
usemtl initialShadingGroup
f 1/25/1 2/31/2 14/32/3 13/26/4
f 2/160/2 3/161/5 15/162/6 14/163/3
f 3/161/5 4/164/7 16/165/8 15/162/6
f 4/9/7 5/1/9 17/4/10 16/10/8
f 5/1/9 6/2/11 18/3/12 17/4/10
f 6/2/11 7/5/13 19/6/14 18/3/12
f 7/5/13 8/11/15 20/12/16 19/6/14
f 8/166/15 9/167/17 21/168/18 20/169/16
f 9/167/17 10/170/19 22/171/20 21/168/18
f 10/29/19 11/21/21 23/24/22 22/30/20
f 11/21/21 12/22/23 24/23/24 23/24/22
f 12/22/23 1/25/1 13/26/4 24/23/24
f 2/67/2 1/68/1 25/69/25
f 3/71/5 2/67/2 25/69/25
f 4/73/7 3/71/5 25/69/25
f 5/75/9 4/73/7 25/69/25
f 6/77/11 5/75/9 25/69/25
f 7/79/13 6/77/11 25/69/25
f 8/78/15 7/79/13 25/69/25
f 9/76/17 8/78/15 25/69/25
f 10/74/19 9/76/17 25/69/25
f 11/72/21 10/74/19 25/69/25
f 12/70/23 11/72/21 25/69/25
f 1/68/1 12/70/23 25/69/25
f 35/80/26 36/81/27 26/82/28
f 36/81/27 37/83/29 26/82/28
f 37/83/29 38/87/30 85/85/31
f 38/87/30 27/94/32 75/90/33
s 5
f 89/107/34 90/108/35 91/109/36 92/110/37
f 92/110/37 93/113/38 94/114/39 89/107/34
s 1
f 87/97/40 88/98/41 26/82/28
f 88/98/41 31/93/42 26/82/28
f 31/93/42 32/89/43 26/82/28
f 32/89/43 33/86/44 26/82/28
f 33/86/44 34/84/45 26/82/28
f 34/84/45 35/80/26 26/82/28
f 51/116/46 52/117/47 53/118/48 54/119/49
f 52/117/47 55/120/50 56/121/51 53/118/48
f 55/120/50 57/124/52 58/125/53 56/121/51
f 57/124/52 59/128/54 60/129/55 58/125/53
f 59/128/54 61/132/56 62/133/57 60/129/55
f 61/132/56 63/136/58 64/137/59 62/133/57
f 63/136/58 65/138/60 66/139/61 64/137/59
f 65/138/60 67/134/62 68/135/63 66/139/61
f 67/134/62 69/130/64 70/131/65 68/135/63
f 69/130/64 71/126/66 72/127/67 70/131/65
f 71/126/66 73/122/68 74/123/69 72/127/67
f 73/122/68 51/116/46 54/119/49 74/123/69
f 13/140/4 14/141/3 40/142/70 39/143/71
f 14/141/3 15/144/6 41/145/72 40/142/70
f 15/144/6 16/146/8 42/147/73 41/145/72
f 16/146/8 17/148/10 43/149/74 42/147/73
f 17/4/10 18/3/12 44/7/75 43/8/74
f 18/3/12 19/6/14 45/13/76 44/7/75
f 19/150/14 20/151/16 46/152/77 45/153/76
f 20/151/16 21/154/18 47/155/78 46/152/77
f 21/154/18 22/156/20 48/157/79 47/155/78
f 22/156/20 23/158/22 49/159/80 48/157/79
f 23/24/22 24/23/24 50/27/81 49/28/80
f 24/23/24 13/26/4 39/33/71 50/27/81
f 43/8/74 44/7/75 52/14/47 51/15/46
f 28/41/82 27/42/32 54/43/49 53/44/48
f 44/7/75 45/13/76 55/16/50 52/14/47
f 29/47/83 28/41/82 53/44/48 56/48/51
f 45/13/76 46/19/77 57/20/52 55/16/50
f 30/49/84 29/47/83 56/48/51 58/50/53
f 46/172/77 47/173/78 59/174/54 57/175/52
f 31/178/42 30/179/84 58/180/53 60/181/55
f 47/173/78 48/176/79 61/177/56 59/174/54
f 32/182/43 31/178/42 60/181/55 62/183/57
f 48/37/79 49/28/80 63/35/58 61/38/56
f 33/52/44 32/55/43 62/56/57 64/53/59
f 49/28/80 50/27/81 65/34/60 63/35/58
f 34/51/45 33/52/44 64/53/59 66/54/61
f 50/27/81 39/33/71 67/36/62 65/34/60
f 35/57/26 34/51/45 66/54/61 68/58/63
f 39/33/71 40/39/70 69/40/64 67/36/62
f 36/59/27 35/57/26 68/58/63 70/60/65
f 40/184/70 41/185/72 71/186/66 69/187/64
f 37/190/29 36/191/27 70/192/65 72/193/67
f 41/185/72 42/188/73 73/189/68 71/186/66
f 38/194/30 37/190/29 72/193/67 74/195/69
f 42/17/73 43/8/74 51/15/46 73/18/68
f 27/42/32 38/45/30 74/46/69 54/43/49
s 5
f 91/109/36 95/111/85 96/112/86 92/110/37
f 96/112/86 97/115/87 93/113/38 92/110/37
s 1
f 29/106/83 30/102/84 76/101/88
f 38/87/30 75/90/33 84/88/89 85/85/31
f 27/94/32 28/103/82 78/104/90 81/99/91
f 82/105/92 29/106/83 76/101/88 79/100/93
f 80/92/94 86/96/95 87/97/40 26/82/28
f 75/90/33 77/95/96 83/91/97 84/88/89
f 27/94/32 81/99/91 77/95/96 75/90/33
f 28/103/82 29/106/83 82/105/92 78/104/90
f 84/88/89 83/91/97 80/92/94 26/82/28
f 85/85/31 84/88/89 26/82/28
f 37/83/29 85/85/31 26/82/28
f 87/97/40 86/96/95 79/100/93 76/101/88
f 76/101/88 30/102/84 88/98/41 87/97/40
f 30/102/84 31/93/42 88/98/41
s off
f 80/202/98 83/196/99 90/199/100 89/203/101
f 83/196/102 77/197/103 91/198/104 90/199/105
f 79/204/106 86/205/107 94/206/108 93/207/109
f 86/205/110 80/208/111 89/209/112 94/206/113
f 77/197/114 81/200/115 95/201/116 91/198/117
f 81/61/118 78/62/119 96/63/120 95/64/121
f 78/62/122 82/65/123 97/66/124 96/63/125
f 82/210/126 79/204/127 93/207/128 97/211/129
